<svg xmlns="http://www.w3.org/2000/svg" viewBox="0 0 1500 600">
  <g>
    <path d="M75 225l300 300-19 19L56 244z" fill="#bdc3c7"/>
    <path d="M19 281l300 300-19 19L0 300z" fill="#7f8c8d"/>
    <path d="M47 253l300 300-19 19L28 272z" fill="#95a5a6"/>
    <path d="M0 300L300 0l75 75L75 375z" fill="#2980b9"/>
  </g>
  <g>
    <path d="M1425 375L1125 75l19-19 300 300z" fill="#bdc3c7"/>
    <path d="M1481 319L1181 19l19-19 300 300z" fill="#7f8c8d"/>
    <path d="M1453 347L1153 47l19-19 300 300z" fill="#95a5a6"/>
    <path d="M1500 300l-300 300-75-75 300-300z" fill="#2980b9"/>
  </g>
  <g>
    <path d="M525 461h193v64H461V75h64zM846 413q0 48 49 48h144v64H895q-113 0-113-112V187q0-112 113-112h144v64H895q-49 0-49 48z" fill="#2980b9"/>
  </g>
</svg>
